<svg width="19" height="20" viewBox="0 0 19 20" fill="none" xmlns="http://www.w3.org/2000/svg">
<g id="recycle-bin-2--remove-delete-empty-bin-trash-garbage">
<path id="Subtract" fill-rule="evenodd" clip-rule="evenodd" d="M7.59879 2.86825C7.89106 2.57868 8.25332 2.37149 8.65013 2.26693C9.04693 2.16238 9.4647 2.16405 9.86255 2.27178C10.2604 2.37951 10.6247 2.58961 10.9198 2.88153C11.2149 3.17344 11.4307 3.53717 11.5461 3.93713L6.99637 3.87062C7.11134 3.49035 7.31838 3.14587 7.59879 2.86825ZM4.91548 3.8402C5.08362 2.79217 5.61703 1.84273 6.41951 1.16313C7.22199 0.483525 8.24072 0.118489 9.29196 0.133857C10.3432 0.149225 11.3577 0.543985 12.1526 1.24694C12.9475 1.94989 13.4704 2.91477 13.627 3.96755L17.4103 4.02286C17.6801 4.0268 17.9383 4.13899 18.1281 4.33474C18.3178 4.53049 18.4235 4.79377 18.422 5.06666C18.4205 5.33954 18.3119 5.59969 18.1201 5.78986C17.9282 5.98003 17.6688 6.08465 17.399 6.08071L16.0425 6.06088L15.9803 17.3791C15.9773 17.9248 15.76 18.4451 15.3763 18.8255C14.9926 19.2058 14.4739 19.4151 13.9342 19.4072L4.43863 19.2683C3.89898 19.2605 3.38262 19.0361 3.00314 18.6446C2.62367 18.2531 2.41217 17.7265 2.41517 17.1808L2.47737 5.86257L1.12086 5.84274C0.987251 5.84079 0.855101 5.81224 0.73195 5.75873C0.6088 5.70521 0.497061 5.62778 0.403113 5.53086C0.309165 5.43393 0.234848 5.31941 0.184406 5.19383C0.133964 5.06825 0.108383 4.93406 0.109126 4.79894C0.109869 4.66382 0.136919 4.53041 0.188734 4.40632C0.240548 4.28223 0.316111 4.1699 0.411109 4.07574C0.506107 3.98158 0.618679 3.90742 0.742398 3.85752C0.866117 3.80762 0.99856 3.78294 1.13216 3.78489L4.91548 3.8402ZM6.53465 8.15277C7.00264 8.15962 7.38036 8.5493 7.37776 9.02261L7.34759 14.513C7.34634 14.7404 7.25581 14.9571 7.09593 15.1156C6.93605 15.2741 6.71991 15.3613 6.49505 15.358C6.2702 15.3547 6.05505 15.2612 5.89693 15.0981C5.73882 14.935 5.65069 14.7156 5.65194 14.4882L5.68212 8.99782C5.68472 8.52451 6.06665 8.14593 6.53465 8.15277ZM12.8038 9.10193C12.8051 8.87452 12.7169 8.65512 12.5588 8.492C12.4007 8.32887 12.1856 8.23538 11.9607 8.2321C11.7358 8.22881 11.5197 8.31599 11.3598 8.47447C11.1999 8.63295 11.1094 8.84973 11.1082 9.07714L11.078 14.5675C11.0767 14.7949 11.1649 15.0143 11.323 15.1774C11.4811 15.3405 11.6962 15.434 11.9211 15.4373C12.146 15.4406 12.3621 15.3534 12.522 15.1949C12.6819 15.0365 12.7724 14.8197 12.7736 14.5923L12.8038 9.10193Z" fill="#434343"/>
</g>
</svg>
