<svg width="16" height="20" viewBox="0 0 16 20" fill="none" xmlns="http://www.w3.org/2000/svg">
<path id="Union" fill-rule="evenodd" clip-rule="evenodd" d="M11.2907 11.5901C11.0844 11.8405 10.8196 12.0083 10.5319 12.0709L7.10337 12.8171C6.87821 12.8663 6.64655 12.8495 6.4279 12.768C6.20925 12.6864 6.01 12.5425 5.84692 12.3485C5.68384 12.1544 5.5617 11.9159 5.49078 11.6528C5.41986 11.3898 5.40224 11.11 5.43939 10.837L6.01081 6.63653C6.05931 6.27886 6.19965 5.94869 6.41195 5.6928L11.1422 6.76544e-07H2.85657C2.40192 6.76544e-07 1.96589 0.218365 1.64441 0.607057C1.32292 0.995749 1.14231 1.52293 1.14231 2.07262V14.3964L0.0291837 18.4353C-0.00308643 18.5526 -0.00871219 18.6783 0.0128936 18.7992C0.0344993 18.92 0.0825445 19.0317 0.152014 19.1225C0.221484 19.2132 0.309831 19.2798 0.407835 19.3152C0.505839 19.3506 0.609906 19.3535 0.709174 19.3237L5.21197 17.9627H14.285C14.7396 17.9627 15.1757 17.7443 15.4971 17.3556C15.8186 16.967 15.9992 16.4398 15.9992 15.8901V5.87242L11.2907 11.5901ZM14.0781 0.106395C13.8683 0.000630907 13.6371 -0.0270703 13.4142 0.0268332C13.1913 0.0807368 12.9868 0.213796 12.8267 0.408998L7.42108 6.91702L6.84966 11.1175L10.2782 10.3714L15.661 3.83573C15.7681 3.70728 15.8531 3.55445 15.9111 3.38608C15.9691 3.2177 15.999 3.0371 15.999 2.85469C15.999 2.67228 15.9691 2.49168 15.9111 2.3233C15.8531 2.15492 15.7681 2.0021 15.661 1.87365L14.4495 0.408998C14.3436 0.279002 14.2173 0.175685 14.0781 0.105013V0.106395Z" fill="#434343"/>
</svg>
