<svg width="18" height="14" viewBox="0 0 18 14" fill="none" xmlns="http://www.w3.org/2000/svg">
<g id="&#240;&#159;&#166;&#134; icon &#34;Eye Slash&#34;">
<path id="Vector" d="M17.831 12.8789L1.01274 0.0959767C0.966614 0.0600684 0.913662 0.0333454 0.85691 0.0173336C0.800159 0.00132179 0.740719 -0.0036653 0.681984 0.00265706C0.62325 0.00897942 0.566372 0.0264874 0.514597 0.0541814C0.462822 0.0818755 0.417165 0.119213 0.380232 0.164063L0.0989906 0.505586C0.0619708 0.550451 0.0344135 0.601973 0.0178957 0.657203C0.00137784 0.712434 -0.00377633 0.770289 0.00272808 0.827459C0.0092325 0.884628 0.0272678 0.939989 0.0558021 0.990375C0.0843363 1.04076 0.122809 1.08518 0.16902 1.12109L16.9873 13.904C17.0334 13.9399 17.0863 13.9667 17.1431 13.9827C17.1998 13.9987 17.2593 14.0037 17.318 13.9973C17.3767 13.991 17.4336 13.9735 17.4854 13.9458C17.5372 13.9181 17.5828 13.8808 17.6198 13.8359L17.901 13.4944C17.938 13.4495 17.9656 13.398 17.9821 13.3428C17.9986 13.2876 18.0038 13.2297 17.9973 13.1725C17.9908 13.1154 17.9727 13.06 17.9442 13.0096C17.9157 12.9592 17.8772 12.9148 17.831 12.8789ZM8.34724 4.00504L12.1381 6.88652C12.0757 5.24754 10.7009 3.9375 9 3.9375C8.78059 3.9379 8.56182 3.96053 8.34724 4.00504ZM9.65276 9.99523L5.86191 7.11375C5.92463 8.75246 7.29933 10.0625 9 10.0625C9.21939 10.062 9.43815 10.0395 9.65276 9.99523ZM9 3.0625C11.7744 3.0625 14.318 4.56641 15.6916 7C15.3549 7.59893 14.9388 8.15235 14.4541 8.64609L15.5155 9.45273C16.1065 8.8381 16.6071 8.14696 17.0033 7.39895C17.0676 7.27521 17.1011 7.13851 17.1011 6.99986C17.1011 6.86122 17.0676 6.72451 17.0033 6.60078C15.4767 3.70754 12.4573 1.75 9 1.75C7.96784 1.75 6.98322 1.94141 6.05737 2.26434L7.36261 3.25664C7.89528 3.13906 8.44089 3.0625 9 3.0625ZM9 10.9375C6.22555 10.9375 3.68229 9.43359 2.30842 7C2.64557 6.40108 3.06208 5.84775 3.54729 5.35418L2.48589 4.54754C1.89504 5.16208 1.39447 5.85314 0.998401 6.60105C0.934064 6.72479 0.900544 6.86149 0.900544 7.00014C0.900544 7.13878 0.934064 7.27549 0.998401 7.39922C2.52357 10.2925 5.54298 12.25 9 12.25C10.0322 12.25 11.0168 12.0572 11.9426 11.7357L10.6374 10.7436C10.1047 10.8609 9.55939 10.9375 9 10.9375Z" fill="#797979"/>
</g>
</svg>
