<svg width="29" height="29" viewBox="0 0 29 29" fill="none" xmlns="http://www.w3.org/2000/svg">
<g id="&#240;&#159;&#166;&#134; icon &#34;star&#34;">
<path id="Vector" d="M13.2498 1.82507C13.683 0.724974 15.317 0.724974 15.7502 1.82508L18.5449 9.29863C18.7404 9.79491 19.2385 10.1237 19.7951 10.1237H26.6622C27.9302 10.1237 28.4841 11.6491 27.4871 12.3951L22.6 16.6406C22.15 16.9773 21.9754 17.5497 22.1658 18.0637L23.95 25.3669C24.3844 26.5389 22.9768 27.5472 21.9149 26.8248L15.2761 22.7595C14.8119 22.4437 14.1882 22.4437 13.7239 22.7595L7.08519 26.8248C6.02319 27.5472 4.61564 26.5389 5.05 25.3669L6.83418 18.0637C7.02465 17.5497 6.85001 16.9773 6.4 16.6406L1.51292 12.3951C0.515839 11.6491 1.06982 10.1237 2.33785 10.1237H9.20486C9.76145 10.1237 10.2596 9.79491 10.4551 9.29863L13.2498 1.82507Z" stroke="black" stroke-width="2" stroke-linecap="round" stroke-linejoin="round"/>
</g>
</svg>
