<svg width="140" height="94" viewBox="0 0 140 94" fill="none" xmlns="http://www.w3.org/2000/svg">
<g id="Group 153">
<g id="&#240;&#159;&#166;&#134; icon &#34;cloud&#34;">
<path id="Vector" d="M108.665 34.584H105.796L105.233 31.7708C102.021 15.7235 87.1441 3.5 70.1218 3.5C50.8056 3.5 35.0789 19.3134 35.0789 38.855V46.626V49.0743L32.7789 49.9138C25.3663 52.6194 19.6617 61.1426 19.6617 69.939C19.6617 80.9325 28.4508 89.752 39.2875 89.752H108.665C123.664 89.752 135.999 77.3578 135.999 62.168C135.999 46.9781 123.664 34.584 108.665 34.584Z" stroke="#2D74FF" stroke-width="7"/>
</g>
<g id="&#240;&#159;&#166;&#134; icon &#34;heart&#34;">
<path id="Vector_2" d="M8.36311 24.0467L8.34886 24.0615L8.33483 24.0765C5.48876 27.1115 3.6748 31.2448 3.6748 35.936C3.6748 40.5719 5.49803 44.6869 8.307 47.7655L8.32081 47.7807L8.33483 47.7956L30.577 71.5143L32.7654 73.8479L34.9537 71.5143L57.1959 47.7956C60.042 44.7606 61.856 40.6272 61.856 35.936C61.856 31.3002 60.0327 27.1852 57.2238 24.1066L57.2099 24.0914L57.1959 24.0765C54.3497 21.0413 50.3883 19.0248 45.8107 19.0248C41.285 19.0248 37.3407 21.0512 34.4537 24.0467L34.4394 24.0615L34.4254 24.0765C33.8187 24.7235 33.2589 25.4204 32.7535 26.162C32.2613 25.4349 31.7186 24.7482 31.1332 24.1066L31.1194 24.0914L31.1054 24.0765C28.2591 21.0413 24.2977 19.0248 19.7201 19.0248C15.1944 19.0248 11.2502 21.0512 8.36311 24.0467Z" fill="#2D74FF" stroke="white" stroke-width="6"/>
</g>
</g>
</svg>
