<svg width="34" height="26" viewBox="0 0 34 26" fill="none" xmlns="http://www.w3.org/2000/svg">
<g id="Group 85">
<g id="&#240;&#159;&#166;&#134; icon &#34;cloud&#34;">
<path id="Vector" d="M25.7253 9.60812H24.8872L24.7407 8.78292C23.9411 4.27929 20.2827 1 16.2565 1C11.6984 1 7.78779 5.24887 7.78779 10.7601V12.9122V13.5821L7.16829 13.837C5.4337 14.5507 4.00029 16.8724 4.00029 19.3683C4.00029 22.5123 6.2065 24.8243 8.68154 24.8243H25.7253C29.223 24.8243 32.3003 21.5224 32.3003 17.2162C32.3003 12.9101 29.223 9.60812 25.7253 9.60812Z" stroke="black" stroke-width="2"/>
</g>
<g id="&#240;&#159;&#166;&#134; icon &#34;heart&#34;">
<path id="Vector_2" d="M2.96142 6.03617L2.95446 6.04368L2.9476 6.05128C2.05754 7.03807 1.5 8.37109 1.5 9.86828C1.5 11.3527 2.06206 12.6764 2.93404 13.67L2.94077 13.6777L2.9476 13.6853L9.08241 20.4867L10.1963 21.7216L11.3101 20.4867L17.4449 13.6853C18.335 12.6985 18.8925 11.3655 18.8925 9.86828C18.8925 8.38385 18.3304 7.06012 17.4585 6.06652L17.4517 6.05885L17.4449 6.05128C16.5549 5.06456 15.2855 4.37915 13.7944 4.37915C12.3361 4.37915 11.0902 5.0498 10.1967 5.99449C9.30957 5.03836 8.0605 4.37915 6.59813 4.37915C5.11849 4.37915 3.85747 5.06959 2.96142 6.03617Z" fill="black" stroke="white" stroke-width="3"/>
</g>
</g>
</svg>
