<svg width="29" height="29" viewBox="0 0 29 29" fill="none" xmlns="http://www.w3.org/2000/svg">
<g id="Group 86">
<g id="&#240;&#159;&#166;&#134; icon &#34;image&#34;">
<g id="Group">
<path id="Vector" d="M1 6.2202C1 3.33716 3.41766 1 6.4 1H22.6C25.5823 1 28 3.33716 28 6.2202V21.8808C28 24.7638 25.5823 27.101 22.6 27.101H6.4C3.41766 27.101 1 24.7638 1 21.8808V6.2202Z" stroke="black" stroke-width="2" stroke-linecap="round" stroke-linejoin="round"/>
</g>
</g>
<g id="&#240;&#159;&#166;&#134; icon &#34;moon&#34;">
<path id="Vector_2" d="M11.7146 5.60132C8.16364 6.79246 5.60156 10.1411 5.60156 14.0966C5.60156 19.0634 9.62447 23.0864 14.5913 23.0864C18.5468 23.0864 21.8955 20.5243 23.0866 16.9733C22.1876 17.2655 21.2212 17.4678 20.2099 17.4678C15.2431 17.4678 11.2201 13.4449 11.2201 8.47803C11.2201 7.46669 11.3999 6.50029 11.7146 5.60132Z" fill="black"/>
</g>
</g>
</svg>
