<svg width="33" height="32" viewBox="0 0 33 32" fill="none" xmlns="http://www.w3.org/2000/svg">
<g id="&#240;&#159;&#166;&#134; icon &#34;star&#34;">
<path id="Vector" d="M14.8264 2.8977C15.2971 1.70076 17.0728 1.70076 17.5435 2.89772L20.5803 11.0292C20.7927 11.5691 21.334 11.9269 21.9388 11.9269H29.4009C30.7788 11.9269 31.3807 13.5865 30.2973 14.3982L24.9868 19.0175C24.4978 19.3838 24.308 20.0066 24.515 20.5658L26.4537 28.512C26.9258 29.7872 25.3962 30.8842 24.2423 30.0982L17.0283 25.675C16.5238 25.3314 15.8461 25.3314 15.3416 25.675L8.1277 30.0982C6.97368 30.8842 5.44417 29.7872 5.91617 28.512L7.85493 20.5658C8.0619 20.0066 7.87214 19.3838 7.38314 19.0175L2.07262 14.3982C0.989148 13.5865 1.59113 11.9269 2.96903 11.9269H10.431C11.0358 11.9269 11.5772 11.5691 11.7896 11.0292L14.8264 2.8977Z" stroke="black" stroke-width="3" stroke-linecap="round" stroke-linejoin="round"/>
</g>
</svg>
